<?xml version="1.0" encoding="utf-8"?>
<!-- Generator: Adobe Illustrator 18.1.1, SVG Export Plug-In . SVG Version: 6.00 Build 0)  -->
<svg version="1.1" id="Capa_1" xmlns="http://www.w3.org/2000/svg" xmlns:xlink="http://www.w3.org/1999/xlink" x="0px" y="0px"
	 width="300px" height="300px" viewBox="124 -51.5 300 300" enable-background="new 124 -51.5 300 300" xml:space="preserve">
<circle fill="#67A553" cx="274" cy="98.5" r="150"/>
<g>
	<g>
		<g>
			<path fill="#FFFFFF" d="M317.5,154.2c-1.3-1.3-3.4-1.4-4.7-0.1c-3.3,3.1-7.7,5.5-12.7,6.7c-1.8,0.4-2.9,2.3-2.4,4.1
				c0.4,1.8,2.3,2.9,4.1,2.4c6-1.5,11.5-4.4,15.7-8.3C318.8,157.7,318.9,155.7,317.5,154.2z"/>
		</g>
	</g>
	<g>
		<g>
			<path fill="#FFFFFF" d="M357.8,97.1h-7.2c-2.9-7.3-7.1-14.1-12.3-20.2l7.8-23c0.6-1.7-0.2-3.5-1.9-4.2c-3.1-1.3-6.4-2-9.7-2
				c-8,0-16,3.6-22.3,9.6c-4.8-2.3-9.9-4.3-15.2-5.8c3.2-5.1,5-11.1,5.1-17.5c0-18.6-15.2-33.7-33.8-33.7
				c-18.7,0-33.8,15.1-33.8,33.7c0,6.7,2,13,5.4,18.2c-11.5,3.5-21.7,9-30.2,16.1c-5.6,4.6-10.6,10-14.4,15.9c-3,0-5.7-1.1-7.5-2.6
				c-1.9-1.5-2.9-3.5-2.9-5.6c0-1.9-1.5-3.4-3.4-3.4c-1.9,0-3.4,1.5-3.4,3.4c0,4.3,2.1,8.2,5.3,10.8c2.2,1.9,5.1,3.2,8,3.7
				c-4.5,8.6-6.9,18.1-6.9,28.1c0,19.4,9.4,36.9,24.4,49.6l-3.4,13.6l0,0c-0.2,0.7-0.2,1.4-0.2,2.2c0,2,0.7,4,1.9,5.5s3,2.8,5,3.2
				l16.2,4c0.8,0.2,1.4,0.2,2.2,0.2c2,0,4-0.7,5.5-1.9c1.5-1.2,2.8-2.9,3.3-5l1.2-4.8c9.1,2.8,19,4.3,29.3,4.3
				c10.3,0,20.2-1.5,29.3-4.3l1.2,4.8c0.6,2.1,1.7,3.7,3.2,5c1.5,1.2,3.5,1.9,5.5,1.9c0.7,0,1.4-0.1,2.2-0.2l16.2-4
				c2.1-0.6,3.7-1.7,5-3.2c1.2-1.5,1.9-3.4,1.9-5.5c0-0.7-0.1-1.4-0.2-2.1l-3.4-13.6c9.7-8.3,17.1-18.5,21.1-30.1h6.4
				c6.6,0,12-5.4,12-11.9v-17.1C369.8,102.5,364.4,97.1,357.8,97.1z M249,15c5-4.8,11.7-7.9,19.2-7.9s14.2,3,19.2,7.9
				c5,4.8,7.9,11.6,7.9,19.1s-3.1,14.2-7.9,19.1c-5,4.8-11.7,7.9-19.2,7.9c-7.5,0-14.2-3-19.2-7.9c-5-4.8-7.9-11.6-7.9-19.1
				S244.1,20,249,15z M232.4,188.5c-0.1,0.6-0.4,0.9-0.8,1.2c-0.4,0.3-0.9,0.4-1.4,0.4l-0.6-0.1l-16.2-4c-0.6-0.1-0.9-0.4-1.2-0.8
				c-0.3-0.4-0.4-0.9-0.4-1.4l0.1-0.6l0,0l2.6-10.6c5.8,4.1,12.3,7.6,19.3,10.3L232.4,188.5z M326.8,185.3c-0.3,0.4-0.8,0.7-1.2,0.8
				l-16.2,4l-0.6,0.1c-0.4,0-1-0.2-1.4-0.4c-0.4-0.3-0.7-0.8-0.8-1.2l-1.3-5.4c6.1-2.3,11.8-5.3,17-8.7c0.8-0.6,1.5-1.1,2.3-1.7
				l2.6,10.7l0.1,0.6C327.2,184.4,327,185,326.8,185.3z M363.1,126.2c0,1.4-0.6,2.8-1.5,3.6c-1,1-2.2,1.5-3.6,1.5h-8.8
				c-1.5,0-2.9,1-3.2,2.4c-4.1,13.9-13.8,26.1-27.2,34.9c-13.3,8.8-30.4,14.1-49,14.1c-21.8,0-41.6-7.3-55.7-19
				c-14.2-11.7-22.7-27.7-22.7-45.1c0-17.5,8.6-33.4,22.7-45.1c8.5-6.9,18.8-12.3,30.5-15.5c2.2,2.1,4.6,4,7.3,5.5
				c-3.5,0.6-6.9,1.2-10.4,2.2c-1.8,0.6-2.9,2.3-2.3,4.2c0.6,1.8,2.3,2.9,4.2,2.3c8.2-2.2,16.9-3.4,25.7-3.4c8.4,0,16.9,1,25.4,3
				c1.9,0.4,3.6-0.7,4.1-2.5c0.4-1.8-0.7-3.6-2.5-4.1c-3.5-0.9-7.1-1.4-10.6-2c2.8-1.5,5.3-3.5,7.4-5.7c6.7,1.7,13.1,4.1,18.8,7.1
				c1.3,0.7,3.1,0.4,4.1-0.8c5.3-5.8,12.5-9.3,19.1-9.3c1.4,0,2.8,0.1,4.1,0.4l-7.4,21.6c-0.4,1.2-0.1,2.4,0.8,3.4
				c6,6.4,10.4,13.7,13.1,21.6c0.4,1.3,1.8,2.3,3.2,2.3h9.5c1.4,0,2.8,0.6,3.6,1.5c1,1,1.5,2.2,1.5,3.6V126.2z"/>
		</g>
	</g>
	<g>
		<g>
			<ellipse fill="#FFFFFF" cx="322.1" cy="95.1" rx="4.7" ry="4.7"/>
		</g>
	</g>
	<g>
		<g>
			<path fill="#FFFFFF" d="M277,32.6c-1.8-1.3-3.6-2-5.4-2.4v-7.9c0.7,0.2,1.1,0.4,1.4,0.8c0.4,0.3,0.7,0.7,0.9,1.1
				c0.2,0.3,0.3,0.8,0.3,1.4c0,1.9,1.5,3.4,3.4,3.4c1.9,0,3.4-1.5,3.4-3.4c0-1.4-0.3-3-1-4.3c-1-2-2.8-3.6-4.8-4.7
				c-1.1-0.6-2.3-0.9-3.6-1.2v-0.2c0-1.9-1.5-3.4-3.4-3.4s-3.4,1.5-3.4,3.4v0.1c-0.9,0.1-1.8,0.3-2.5,0.7c-2.4,0.9-4.2,2.4-5.3,4.2
				c-1.1,1.8-1.5,3.6-1.5,5.4c0,1.8,0.4,3.5,1.3,5c0.8,1.2,1.8,2.2,2.9,2.9c1.8,1.1,3.5,1.7,5.3,2.2v8.8c-0.7-0.2-1.1-0.6-1.4-0.8
				c-0.8-0.7-1.1-1.4-1.2-2.5c0-1.9-1.5-3.4-3.4-3.4s-3.4,1.5-3.4,3.4c0,3,1.3,5.8,3.5,7.7c1.7,1.3,3.6,2.2,5.8,2.5v0.2
				c0,1.9,1.5,3.4,3.4,3.4s3.4-1.5,3.4-3.4v-0.3c1.8-0.3,3.4-0.8,5-1.8c1.3-0.8,2.5-2,3.3-3.4c0.8-1.4,1.2-3.2,1.2-5
				c0-1.9-0.4-3.6-1.2-5.1C279,34.4,278,33.4,277,32.6z M264.7,28.3c-0.8-0.3-1.4-0.6-1.8-0.9c-0.3-0.2-0.6-0.4-0.7-0.8
				c-0.1-0.2-0.2-0.6-0.2-1.2c0-0.8,0.3-1.7,1-2.4c0.3-0.3,0.8-0.7,1.5-1h0.1V28.3L264.7,28.3z M273.8,42.7
				c-0.1,0.3-0.3,0.6-0.7,0.8c-0.3,0.3-0.9,0.6-1.7,0.8v-6.8l0,0c0.2,0.1,0.4,0.2,0.7,0.3c0.8,0.4,1.2,0.8,1.4,1.2
				c0.2,0.4,0.4,0.9,0.4,2C274.1,41.8,274,42.2,273.8,42.7z"/>
		</g>
	</g>
</g>
</svg>
