<?xml version="1.0" encoding="utf-8"?>
<!-- Generator: Adobe Illustrator 18.1.1, SVG Export Plug-In . SVG Version: 6.00 Build 0)  -->
<svg version="1.1" id="Capa_1" xmlns="http://www.w3.org/2000/svg" xmlns:xlink="http://www.w3.org/1999/xlink" x="0px" y="0px"
	 width="300px" height="300px" viewBox="-258 -49.5 300 300" enable-background="new -258 -49.5 300 300" xml:space="preserve">
<circle fill="#67A553" cx="-108" cy="100.5" r="150"/>
<g>
	<path fill="#FFFFFF" d="M-129,63c-3.9,0-7-3.1-7-7s3.2-7,7-7c3.9,0,7,3.1,7,7S-125.2,63-129,63z"/>
	<path fill="#FFFFFF" d="M-86.7,63c-3.9,0-7-3.1-7-7s3.2-7,7-7c3.9,0,7,3.1,7,7S-82.8,63-86.7,63z"/>
	<path fill="#FFFFFF" d="M-107.9,91c-6.3,0-12.3-2.5-16.7-6.9c-1.8-1.8-1.8-4.8,0-6.6c1.8-1.8,4.8-1.8,6.6,0
		c5.4,5.4,14.8,5.4,20.2,0c1.8-1.8,4.8-1.8,6.6,0c1.8,1.8,1.8,4.8,0,6.6C-95.7,88.6-101.6,91-107.9,91L-107.9,91z"/>
	<path fill="#FFFFFF" d="M-164.1,49c-1.4,0-2.9-0.7-3.8-1.9c-1.5-2.1-1.1-5,1-6.5c0.8-0.6,20.5-15,59-15c38.5,0,58.1,14.4,58.9,15
		c2.1,1.5,2.5,4.5,0.9,6.5c-1.5,2.1-4.5,2.5-6.5,1c-0.2-0.1-18.2-13.1-53.3-13.1c-35.1,0-53.2,13-53.4,13.1
		C-162.2,48.7-163.2,49-164.1,49L-164.1,49z"/>
	<path fill="#FFFFFF" d="M-65.9,212.7h-84.2c-12.9,0-23.4-10.5-23.4-23.4v-13.2c0-2.6,2.1-4.7,4.7-4.7c2.6,0,4.7,2.1,4.7,4.7v13.2
		c0,7.7,6.3,14,14,14h84.2c7.7,0,14-6.3,14-14v-12.4c0-2.6,2.1-4.7,4.7-4.7s4.7,2.1,4.7,4.7v12.4C-42.5,202.2-53,212.7-65.9,212.7z"
		/>
	<path fill="#FFFFFF" d="M-168.8,141.7c-2.6,0-4.7-2.1-4.7-4.7v-13.2c0-12.9,10.5-23.4,23.4-23.4h84.2c12.9,0,23.4,10.5,23.4,23.4
		v12.4c0,2.6-2.1,4.7-4.7,4.7s-4.7-2.1-4.7-4.7v-12.4c0-7.7-6.3-14-14-14h-84.2c-7.7,0-14,6.3-14,14V137
		C-164.1,139.6-166.2,141.7-168.8,141.7z"/>
	<path fill="#FFFFFF" d="M-84.6,147.2h-46.8c-2.6,0-4.7-2.1-4.7-4.7v-37.4c0-2.6,2.1-4.7,4.7-4.7h46.8c2.6,0,4.7,2.1,4.7,4.7v37.4
		C-79.9,145.1-82,147.2-84.6,147.2z M-126.7,137.8h37.4v-28.1h-37.4V137.8z"/>
	<path fill="#FFFFFF" d="M-49,181c-2.4,0-4.8-0.7-6.9-2.1c-3.4-2.3-5.4-6.1-5.4-10.1v-24.5c0-4.1,2-7.8,5.4-10.1
		c3.4-2.3,7.6-2.7,11.4-1.2c9.7,3.9,16,13.1,16,23.6c0,10.4-6.3,19.7-16,23.6C-45.9,180.7-47.5,181-49,181L-49,181z M-49,141.4
		c-0.8,0-1.4,0.3-1.6,0.5c-0.4,0.3-1.3,1-1.3,2.4v24.5c0,1.4,0.9,2.1,1.3,2.4c0.4,0.3,1.4,0.8,2.7,0.3c6.1-2.4,10.1-8.3,10.1-14.9
		c0-6.6-4-12.5-10.1-14.9C-48.3,141.5-48.7,141.4-49,141.4z"/>
	<path fill="#FFFFFF" d="M-167,181c-1.5,0-3.1-0.3-4.5-0.9c-9.7-3.9-16-13.1-16-23.6c0-10.4,6.3-19.7,16-23.6c3.8-1.5,8-1,11.4,1.2
		c3.4,2.3,5.4,6.1,5.4,10.1v24.5c0,4.1-2,7.8-5.4,10.1C-162.2,180.3-164.6,181-167,181L-167,181z M-168.1,141.6
		c-6.1,2.5-10.1,8.3-10.1,14.9c0,6.6,4,12.5,10.1,14.9c1.3,0.5,2.3,0,2.7-0.3c0.4-0.3,1.3-1,1.3-2.4v-24.5c0-1.4-0.9-2.1-1.3-2.4
		C-165.8,141.7-166.8,141.1-168.1,141.6L-168.1,141.6z"/>
	<path fill="#FFFFFF" d="M-142.5,95.7c-1.2,0-2.5-0.5-3.4-1.4c-11.5-11.9-18.3-30.5-18.3-49.8c0-0.4,0-0.8,0.1-1.1l6.8-30.6
		C-155.3,4-148.4-3-139.6-5l26.4-6.1c3.4-0.8,7-0.8,10.4,0L-76.4-5c8.8,2,15.7,9,17.6,17.7l6.8,30.8c0.1,0.3,0.1,0.7,0.1,1v1.4
		c0,14.3-4.8,34.5-18.2,48.4c-1.8,1.9-4.7,1.9-6.6,0.1c-1.9-1.8-1.9-4.8-0.1-6.6c11.5-11.9,15.6-29.4,15.6-41.9V45l-6.7-30.3
		c-1.2-5.3-5.3-9.4-10.6-10.6l-26.3-6c-2.1-0.5-4.2-0.5-6.3,0l-26.4,6c-5.3,1.2-9.4,5.4-10.6,10.6l-6.7,30.3
		c0.1,13.1,4.3,31,15.7,42.8c1.8,1.9,1.7,4.8-0.1,6.6C-140.1,95.3-141.3,95.7-142.5,95.7L-142.5,95.7z"/>
</g>
</svg>
