<?xml version="1.0" encoding="utf-8"?>
<!-- Generator: Adobe Illustrator 18.1.1, SVG Export Plug-In . SVG Version: 6.00 Build 0)  -->
<svg version="1.1" id="Capa_1" xmlns="http://www.w3.org/2000/svg" xmlns:xlink="http://www.w3.org/1999/xlink" x="0px" y="0px"
	 width="300px" height="300px" viewBox="-646 -49.5 300 300" enable-background="new -646 -49.5 300 300" xml:space="preserve">
<circle fill="#67A553" cx="-496" cy="100.5" r="150"/>
<g>
	<g>
		<g>
			<path fill="#FFFFFF" d="M-399.8,89.7l-5.8-23.2c1.6-0.3,2.8-1.7,2.8-3.4v-3.7c0-8.1-6.6-14.7-14.7-14.7h-26.4V37
				c0-4-3.3-7.2-7.2-7.2h-134.5c-4,0-7.2,3.2-7.2,7.2v63.5c0,1.9,1.6,3.5,3.5,3.5c1.9,0,3.5-1.6,3.5-3.5V37c0-0.1,0.1-0.2,0.2-0.2
				h134.5c0.1,0,0.2,0.1,0.2,0.2v63.5c0,1.9,1.6,3.5,3.5,3.5c1.9,0,3.5-1.6,3.5-3.5v-4h41.3c0,0,0,0,0,0c0,0,0,0,0,0
				c5.1,0,9.4,3.3,10.9,7.9h-10.9c-1.9,0-3.5,1.6-3.5,3.5v7.5c0,6.1,4.9,11,11,11h4v15.4h-9.2c-3-8.7-11.3-14.9-21-14.9
				c-9.7,0-18,6.3-21,14.9h-1.7v-26.4c0-1.9-1.6-3.5-3.5-3.5c-1.9,0-3.5,1.6-3.5,3.5v26.4h-72.7c-3-8.7-11.3-14.9-21-14.9
				c-9.7,0-18,6.3-21,14.9h-20.1c-0.1,0-0.2-0.1-0.2-0.2v-7.7h15.2c1.9,0,3.5-1.6,3.5-3.5s-1.6-3.5-3.5-3.5h-33.6
				c-1.9,0-3.5,1.6-3.5,3.5c0,1.9,1.6,3.5,3.5,3.5h11.4v7.7c0,4,3.2,7.2,7.2,7.2h18.9c0,0.1,0,0.2,0,0.2c0,12.2,10,22.2,22.2,22.2
				c12.2,0,22.2-10,22.2-22.2c0-0.1,0-0.2,0-0.2h79c0,0.1,0,0.2,0,0.2c0,12.2,10,22.2,22.2,22.2c12.2,0,22.2-10,22.2-22.2
				c0-0.1,0-0.2,0-0.2h11.5c1.9,0,3.5-1.6,3.5-3.5V108C-384.1,98.7-390.9,91.1-399.8,89.7z M-443.9,51.7h26.4c4.3,0,7.7,3.5,7.7,7.7
				v0.2h-34.1L-443.9,51.7L-443.9,51.7z M-443.9,89.5V66.6h31.1l5.7,22.9H-443.9z M-544.6,164.3c-8.4,0-15.2-6.8-15.2-15.2
				c0-8.4,6.8-15.2,15.2-15.2c8.4,0,15.2,6.8,15.2,15.2C-529.4,157.5-536.2,164.3-544.6,164.3z M-421.3,164.3
				c-8.4,0-15.2-6.8-15.2-15.2c0-8.4,6.8-15.2,15.2-15.2c8.4,0,15.2,6.8,15.2,15.2C-406.1,157.5-412.9,164.3-421.3,164.3z
				 M-391.1,119.4h-4c-2.2,0-4-1.8-4-4v-4h7.9L-391.1,119.4L-391.1,119.4z"/>
		</g>
	</g>
	<g>
		<g>
			<path fill="#FFFFFF" d="M-544.6,141.8c-4,0-7.2,3.2-7.2,7.2c0,4,3.2,7.2,7.2,7.2c4,0,7.2-3.2,7.2-7.2
				C-537.3,145.1-540.6,141.8-544.6,141.8z"/>
		</g>
	</g>
	<g>
		<g>
			<path fill="#FFFFFF" d="M-421.3,141.8c-4,0-7.2,3.2-7.2,7.2c0,4,3.2,7.2,7.2,7.2c4,0,7.2-3.2,7.2-7.2
				C-414,145.1-417.3,141.8-421.3,141.8z"/>
		</g>
	</g>
	<g>
		<g>
			<path fill="#FFFFFF" d="M-462.4,126.9h-52.3c-1.9,0-3.5,1.6-3.5,3.5c0,1.9,1.6,3.5,3.5,3.5h52.3c1.9,0,3.5-1.6,3.5-3.5
				C-458.9,128.5-460.4,126.9-462.4,126.9z"/>
		</g>
	</g>
	<g>
		<g>
			<path fill="#FFFFFF" d="M-552.1,111.9h-44.8c-1.9,0-3.5,1.6-3.5,3.5c0,1.9,1.6,3.5,3.5,3.5h44.8c1.9,0,3.5-1.6,3.5-3.5
				C-548.6,113.5-550.1,111.9-552.1,111.9z"/>
		</g>
	</g>
</g>
</svg>
